<svg xmlns="http://www.w3.org/2000/svg" viewBox="0 0 294 296">
<path d="M 176 14 L 176 33 L 175 34 L 175 42 L 174 43 L 174 50 L 173 51 L 173 56 L 172 57 L 172 61 L 171 62 L 171 66 L 170 67 L 170 71 L 169 72 L 169 75 L 168 76 L 168 79 L 167 80 L 167 83 L 166 84 L 166 87 L 165 88 L 165 91 L 164 92 L 164 94 L 163 95 L 163 98 L 162 99 L 162 101 L 161 102 L 161 105 L 160 106 L 160 108 L 159 109 L 159 111 L 158 112 L 158 115 L 157 116 L 157 118 L 156 119 L 156 121 L 155 122 L 155 124 L 154 125 L 154 127 L 153 128 L 153 130 L 152 131 L 152 133 L 151 134 L 151 136 L 150 137 L 150 139 L 149 140 L 149 142 L 148 143 L 148 145 L 147 146 L 147 148 L 146 149 L 146 151 L 145 152 L 145 154 L 144 155 L 144 157 L 143 158 L 143 159 L 142 160 L 142 162 L 141 163 L 141 165 L 140 166 L 140 168 L 139 169 L 139 170 L 138 171 L 138 173 L 137 174 L 137 176 L 136 177 L 136 179 L 135 180 L 135 181 L 134 182 L 134 184 L 133 185 L 133 186 L 132 187 L 132 189 L 131 190 L 131 191 L 130 192 L 130 194 L 129 195 L 129 196 L 128 197 L 128 199 L 127 200 L 127 201 L 126 202 L 126 203 L 125 204 L 125 205 L 124 206 L 124 208 L 123 209 L 123 210 L 122 211 L 122 212 L 121 213 L 121 214 L 120 215 L 120 217 L 119 218 L 119 219 L 118 220 L 118 221 L 117 222 L 117 223 L 116 224 L 116 225 L 115 226 L 115 227 L 114 228 L 114 229 L 113 230 L 113 231 L 112 232 L 112 233 L 111 234 L 111 235 L 110 236 L 110 238 L 109 239 L 109 240 L 108 241 L 108 242 L 107 243 L 107 244 L 106 245 L 106 246 L 105 247 L 105 248 L 103 250 L 103 251 L 102 252 L 102 253 L 101 254 L 101 255 L 100 256 L 100 257 L 98 259 L 98 260 L 96 262 L 96 263 L 94 265 L 94 266 L 91 269 L 91 270 L 83 278 L 83 281 L 84 282 L 84 283 L 85 284 L 85 285 L 87 287 L 88 287 L 89 288 L 91 288 L 92 287 L 93 288 L 94 288 L 95 287 L 98 287 L 99 286 L 100 286 L 101 285 L 102 285 L 104 283 L 105 283 L 106 282 L 107 282 L 110 279 L 111 279 L 124 266 L 124 265 L 126 263 L 126 262 L 128 260 L 128 259 L 130 257 L 130 256 L 131 255 L 131 254 L 132 253 L 132 252 L 133 251 L 133 250 L 134 249 L 134 247 L 135 246 L 135 245 L 136 244 L 136 242 L 137 241 L 137 240 L 138 239 L 138 237 L 139 236 L 139 234 L 140 233 L 140 231 L 141 230 L 141 228 L 142 227 L 142 225 L 143 224 L 143 222 L 144 221 L 143 220 L 145 218 L 145 214 L 146 213 L 146 212 L 147 211 L 147 208 L 148 207 L 148 205 L 149 204 L 149 202 L 150 201 L 150 199 L 151 198 L 151 196 L 152 195 L 152 193 L 153 192 L 153 190 L 154 189 L 154 187 L 155 186 L 155 184 L 156 183 L 156 182 L 157 181 L 157 179 L 158 178 L 158 177 L 159 176 L 159 175 L 160 174 L 160 173 L 161 172 L 161 171 L 162 170 L 162 169 L 163 168 L 163 167 L 165 165 L 166 166 L 166 174 L 167 175 L 167 188 L 168 189 L 168 197 L 169 198 L 169 205 L 170 206 L 170 211 L 171 212 L 171 217 L 172 218 L 172 221 L 173 222 L 173 224 L 174 225 L 173 226 L 174 227 L 174 230 L 175 231 L 175 234 L 176 235 L 176 237 L 177 238 L 177 240 L 178 241 L 178 243 L 179 244 L 179 246 L 180 247 L 180 248 L 181 249 L 181 251 L 182 252 L 182 253 L 183 254 L 183 255 L 184 256 L 184 257 L 185 258 L 185 259 L 186 260 L 186 261 L 187 262 L 187 263 L 189 265 L 189 266 L 192 269 L 192 270 L 197 275 L 197 276 L 199 278 L 200 278 L 205 283 L 206 283 L 208 285 L 209 285 L 210 286 L 211 286 L 212 287 L 213 287 L 214 288 L 215 288 L 216 289 L 218 289 L 219 290 L 221 290 L 222 291 L 226 291 L 227 292 L 239 292 L 240 291 L 245 291 L 246 290 L 248 290 L 249 289 L 250 289 L 251 288 L 253 288 L 254 287 L 255 287 L 257 285 L 258 285 L 260 283 L 261 283 L 271 273 L 271 272 L 274 269 L 274 268 L 275 267 L 275 266 L 276 265 L 276 260 L 275 260 L 273 258 L 273 257 L 272 257 L 271 256 L 270 256 L 267 253 L 266 253 L 257 244 L 256 244 L 255 243 L 255 242 L 252 239 L 252 238 L 249 235 L 249 234 L 247 232 L 247 231 L 245 229 L 245 228 L 243 226 L 243 225 L 241 223 L 241 222 L 240 221 L 240 220 L 239 219 L 239 218 L 237 216 L 237 215 L 236 214 L 236 213 L 235 212 L 235 211 L 234 210 L 234 209 L 233 208 L 233 207 L 232 206 L 232 205 L 231 204 L 231 202 L 230 201 L 230 200 L 229 199 L 229 198 L 228 197 L 228 195 L 227 194 L 227 193 L 226 192 L 226 190 L 225 189 L 225 188 L 224 187 L 224 185 L 223 184 L 223 182 L 222 181 L 222 180 L 221 179 L 221 177 L 220 176 L 220 175 L 219 174 L 219 171 L 218 170 L 218 167 L 217 166 L 217 164 L 216 163 L 216 160 L 215 159 L 215 155 L 214 154 L 214 151 L 213 150 L 213 145 L 212 144 L 212 139 L 211 138 L 211 132 L 210 131 L 210 125 L 209 124 L 209 122 L 211 120 L 211 119 L 220 110 L 221 110 L 229 102 L 230 102 L 235 97 L 236 97 L 241 92 L 242 92 L 246 88 L 247 88 L 252 83 L 253 83 L 259 77 L 260 77 L 271 66 L 271 65 L 272 64 L 273 64 L 274 63 L 274 62 L 278 58 L 278 57 L 280 55 L 280 54 L 281 53 L 281 52 L 282 51 L 282 50 L 283 49 L 283 48 L 284 47 L 284 45 L 285 44 L 285 42 L 286 41 L 286 38 L 287 37 L 287 23 L 286 22 L 286 21 L 284 19 L 283 19 L 282 18 L 270 18 L 269 19 L 267 19 L 266 20 L 264 20 L 263 21 L 262 21 L 261 22 L 260 22 L 259 23 L 258 23 L 257 24 L 256 24 L 254 26 L 253 26 L 251 28 L 250 28 L 245 33 L 244 33 L 237 40 L 236 40 L 227 49 L 227 50 L 220 57 L 220 58 L 216 62 L 216 63 L 211 68 L 211 69 L 207 73 L 207 74 L 205 76 L 205 77 L 202 80 L 202 81 L 200 83 L 200 84 L 197 87 L 197 88 L 195 90 L 195 91 L 192 94 L 192 95 L 190 97 L 190 98 L 188 100 L 188 101 L 185 104 L 185 105 L 183 107 L 183 108 L 180 111 L 180 112 L 178 114 L 178 115 L 176 117 L 176 118 L 175 119 L 175 120 L 173 122 L 172 122 L 171 121 L 172 120 L 172 118 L 173 117 L 173 114 L 174 113 L 174 110 L 175 109 L 175 107 L 176 106 L 176 103 L 177 102 L 177 98 L 178 97 L 178 96 L 179 95 L 179 92 L 180 91 L 180 89 L 181 88 L 181 85 L 182 84 L 182 81 L 183 80 L 183 78 L 184 77 L 184 74 L 185 73 L 185 70 L 186 69 L 186 66 L 187 65 L 187 62 L 188 61 L 188 58 L 189 57 L 189 54 L 190 53 L 190 50 L 191 49 L 191 46 L 192 45 L 192 41 L 193 40 L 193 36 L 194 35 L 194 29 L 195 28 L 195 25 L 194 24 L 194 22 L 193 21 L 193 19 L 189 15 L 187 15 L 186 14 Z" fill="#c01818"/>
<path d="M 53 2 L 52 3 L 49 3 L 48 4 L 46 4 L 45 5 L 44 5 L 43 6 L 41 6 L 40 7 L 39 7 L 38 8 L 37 8 L 36 9 L 35 9 L 34 10 L 33 10 L 31 12 L 30 12 L 28 14 L 27 14 L 25 16 L 24 16 L 21 19 L 20 19 L 16 23 L 16 24 L 14 26 L 14 28 L 13 29 L 13 31 L 12 32 L 12 34 L 11 35 L 11 38 L 10 39 L 10 44 L 9 45 L 9 52 L 8 53 L 8 65 L 7 66 L 7 129 L 8 130 L 7 131 L 8 132 L 8 148 L 9 149 L 9 157 L 10 158 L 9 159 L 10 160 L 10 168 L 11 169 L 11 177 L 12 178 L 12 185 L 13 186 L 13 192 L 14 193 L 14 199 L 15 200 L 15 206 L 16 207 L 16 212 L 17 213 L 17 219 L 18 220 L 18 225 L 19 226 L 19 229 L 20 230 L 20 236 L 21 237 L 21 241 L 22 242 L 22 246 L 23 247 L 23 251 L 24 252 L 24 255 L 25 256 L 25 259 L 26 260 L 26 263 L 27 264 L 27 266 L 28 267 L 28 269 L 29 270 L 29 272 L 30 273 L 30 274 L 31 275 L 31 276 L 32 277 L 32 278 L 33 279 L 33 280 L 36 283 L 38 283 L 39 284 L 40 284 L 41 285 L 51 285 L 52 284 L 56 284 L 57 283 L 60 283 L 61 282 L 63 282 L 64 281 L 65 281 L 66 280 L 67 280 L 68 279 L 69 279 L 70 278 L 71 278 L 72 277 L 73 277 L 74 276 L 75 276 L 78 273 L 79 273 L 88 264 L 88 263 L 90 261 L 90 260 L 92 258 L 92 257 L 94 255 L 94 254 L 95 253 L 95 252 L 97 250 L 97 249 L 98 248 L 98 247 L 99 246 L 99 245 L 100 244 L 100 243 L 101 242 L 101 241 L 102 240 L 102 239 L 103 238 L 103 237 L 104 236 L 104 235 L 105 234 L 105 233 L 106 232 L 106 231 L 107 230 L 107 229 L 108 228 L 108 227 L 109 226 L 109 225 L 110 224 L 110 223 L 111 222 L 111 220 L 112 219 L 112 218 L 113 217 L 113 216 L 114 215 L 114 214 L 115 213 L 115 212 L 116 211 L 116 210 L 117 209 L 117 208 L 118 207 L 118 205 L 119 204 L 119 203 L 120 202 L 120 201 L 121 200 L 121 198 L 122 197 L 122 196 L 123 195 L 123 194 L 124 193 L 124 191 L 125 190 L 125 189 L 126 188 L 126 186 L 127 185 L 127 183 L 128 182 L 128 181 L 129 180 L 129 178 L 130 177 L 130 176 L 131 175 L 131 173 L 132 172 L 132 171 L 133 170 L 133 168 L 134 167 L 134 165 L 135 164 L 135 162 L 136 161 L 136 160 L 137 159 L 137 157 L 138 156 L 138 154 L 139 153 L 139 151 L 140 150 L 140 148 L 141 147 L 141 145 L 142 144 L 142 142 L 143 141 L 143 140 L 144 139 L 144 137 L 145 136 L 145 134 L 146 133 L 146 131 L 147 130 L 147 128 L 148 127 L 148 125 L 149 124 L 149 121 L 150 120 L 150 118 L 151 117 L 151 115 L 152 114 L 152 112 L 153 111 L 153 109 L 154 108 L 154 105 L 155 104 L 155 102 L 156 101 L 156 98 L 157 97 L 157 95 L 158 94 L 158 91 L 159 90 L 159 88 L 160 87 L 160 84 L 161 83 L 161 80 L 162 79 L 162 76 L 163 75 L 163 72 L 164 71 L 164 67 L 165 66 L 165 62 L 166 61 L 166 57 L 167 56 L 167 49 L 168 48 L 168 43 L 169 42 L 169 33 L 170 32 L 170 11 L 169 10 L 169 8 L 168 7 L 168 6 L 164 6 L 163 7 L 162 7 L 159 10 L 158 10 L 143 25 L 143 26 L 138 31 L 138 32 L 136 34 L 136 35 L 134 37 L 134 38 L 132 40 L 132 41 L 131 42 L 131 43 L 129 45 L 129 46 L 128 47 L 128 48 L 127 49 L 127 51 L 126 52 L 126 53 L 125 54 L 125 56 L 124 57 L 124 59 L 123 60 L 123 63 L 122 64 L 122 67 L 121 68 L 121 71 L 120 72 L 120 76 L 119 77 L 119 82 L 118 83 L 118 88 L 117 89 L 117 94 L 116 95 L 116 100 L 115 101 L 115 105 L 114 106 L 114 110 L 113 111 L 113 115 L 112 116 L 112 119 L 111 120 L 111 124 L 110 125 L 110 129 L 109 130 L 109 132 L 108 133 L 108 136 L 107 137 L 107 140 L 106 141 L 106 143 L 105 144 L 105 147 L 104 148 L 104 150 L 103 151 L 103 153 L 102 154 L 102 157 L 101 158 L 101 160 L 100 161 L 100 164 L 99 165 L 99 167 L 98 168 L 98 170 L 97 171 L 97 172 L 96 173 L 96 176 L 95 177 L 95 178 L 94 179 L 94 181 L 93 182 L 93 184 L 92 185 L 92 188 L 91 189 L 91 190 L 90 191 L 90 192 L 89 193 L 89 195 L 88 196 L 88 197 L 87 198 L 87 200 L 86 201 L 86 202 L 85 203 L 85 204 L 84 205 L 84 207 L 83 208 L 83 209 L 82 210 L 82 211 L 81 212 L 81 213 L 80 214 L 80 215 L 79 216 L 79 217 L 78 218 L 78 219 L 76 221 L 76 223 L 74 225 L 74 226 L 72 228 L 71 227 L 71 224 L 70 223 L 70 220 L 69 219 L 70 218 L 69 217 L 69 212 L 68 211 L 68 206 L 67 205 L 67 192 L 66 191 L 66 174 L 65 173 L 66 172 L 65 171 L 65 101 L 66 100 L 65 99 L 66 98 L 66 74 L 67 73 L 67 50 L 68 49 L 68 32 L 69 31 L 69 13 L 68 12 L 68 10 L 67 9 L 67 7 L 66 6 L 66 5 L 65 4 L 64 4 L 63 3 L 62 3 L 61 2 Z" fill="#c01818"/>
</svg>
